<?xml version="1.0" encoding="UTF-8"?>
<svg version="1.1" viewBox="0 0 120 120" xml:space="preserve" xmlns="http://www.w3.org/2000/svg"><g transform="matrix(.77634 0 0 .77634 12.965 13.221)"><path d="m35.633 13.589c-1.055-0.05855-2.2153 0.33317-3.6879 1.3978 2.9673 1.447 2.5833 4.8429 2.5833 4.8429s1.3215-3.697 5.0839-4.2582c-1.4417-1.089-2.623-1.9072-3.9794-1.9825zm9.1227 3.0079c-1.7348 0.04399-3.5611 0.42808-5.4491 1.5507-4.5267 4.0108-4.8972 8.0594-3.9938 11.798 1.0691 4.4236 2.9691 8.7489 5.4203 12.508 2.4752 3.7963 7.1399 8.8515 9.6156 9.8836 3.0026 1.1556 6.5465 2.2057 8.6585 0.33101-1.8218 0.21621-4.1831 0.16397-6.5141-0.84013 1.6776-1.3718 2.4682-2.1516 2.4682-2.1516s-4.0067 1.0825-8.7359-3.4828c2.6334-0.12582 6.077-0.75917 6.077-0.75917s-3.0144-0.48124-3.9236-4.3679c3.4177 1.4293 4.1772 1.6461 4.1772 1.6461s-3.1006-3.6263-1.5183-9.4321c2.3708 5.8488 5.6974 7.9119 5.6974 7.9119s-0.92738-1.4876-0.31662-2.5941c1.918 1.8903 4.298 3.8884 5.8341 5.1379-0.89083-1.5456-1.9089-3.3417-2.7129-5.28-1.8309-4.7319-2.6664-10.024-2.7237-13.706-2.405-3.6166-5.1471-8.3283-12.06-8.153zm13.115 0.47134c-0.86639-0.03847-1.6647-0.01296-2.2865 0.04677 2.7315 2.157 3.4181 6.077 3.4181 6.077s1.3011-2.5862 5.6344-3.2292c-0.94921-2.087-4.1668-2.7791-6.766-2.8946zm10.051 3.6501c-0.53076 0.02656-1.0751 0.09388-1.6317 0.21048-3.405 0.99302-4.7448 1.728-6.363 4.3518-1.0536 2.1523-0.44105 6.6572 1.0038 10.785 1.1411 3.8924 3.5008 8.6245 5.5283 10.578 2.9662 2.8433 7.8261 5.3172 12.231 3.4882 0.7096-0.36859 1.3407-0.76722 1.9015-1.1927-0.71178-0.40761-1.3987-1.0694-1.9537-2.112 1.8693 0.19265 2.6589-0.25366 2.6589-0.25366s-3.1974-0.84239-3.5458-3.2274c2.3999 0.91541 3.9254 1.0758 3.9254 1.0758s-2.8836-1.8385-2.6589-4.242c1.8536 1.2833 4.0259 2.5045 5.2458 3.1644 1.4805-6.477-3.3947-13.915-3.3947-13.915s-4.9859-9.1091-12.947-8.7107zm-43.741 3.2921c1.4073 5.1661 0.84013 6.7426 0.84013 6.7426s2.6047-2.6317 6.363-0.73938c-0.25317-3.2724-1.9435-5.2519-7.2031-6.0032zm5.987 7.885c-2.7297-0.12325-5.7502 0.88116-7.8886 4.8231-4.3779 10.863 0.35321 17.808 5.3394 24.387 3.7485 4.946 10.399 9.1757 16.587 8.6945 2.086-0.16223 4.1801-1.0802 5.4725-3.0313-1.2757 0.66172-3.4292 1.2798-6.1741 0.18889 1.575-0.77383 1.8368-1.835 1.8368-1.835s-2.9913 1.8945-7.7231 1.0128c1.5895-3.0682 1.5183-4.242 1.5183-4.242s-3.9307 2.7405-8.6729-2.3423c3.7912-0.35243 7.1546-1.5831 7.1546-1.5831s-5.5624 1.1485-6.9639-8.2915c5.0871 3.6344 8.7988 4.1772 8.7988 4.1772s-3.5319-2.5011-2.5959-3.6717c2.7151 1.6535 6.7102 2.7866 6.7102 2.7866s-1.0884-0.4533-1.1388-2.1534c1.1703 0.21425 2.216 0.4784 3.1122 0.74478-0.07142-0.065-0.10974-0.09895-0.10974-0.09895s-4.0738-4.1934-6.1471-7.0736c-2.2725-3.7012-4.3631-8.1206-5.4635-11.055-1.2212-0.609-1.5288-1.3415-3.6519-1.4374zm47.249 21.764c-5.606 0.05842-11.426 1.1276-16.423 3.4882-16.641 8.4196-11.662 35.537-1.5597 45.462 4.6296 4.4833 15.346 7.1662 19.87 2.506 0.56637-0.84289 0.97103-1.7376 1.2431-2.6643-4.1393 1.6419-10.17 3.1725-13.12-0.21047 5.7082-4.4308 6.8937-7.6097 6.8937-7.6097 0-1e-6 -4.7408 4.059-12.802-6.6257 8.9185 1.4072 11.996 2.2379 11.996 2.2379s-3.9259-2.1734-3.7599-5.6398c1.7503 1.1018 3.7599 1.8799 3.7599 1.8799s-3.3199-5.2839-0.62605-8.3257c1.3473 6.9739 4.3859 9.4897 4.3859 9.4897l0.29863 0.30943c4.7256 2.1064 16.634 9.638 23 0.74478 4.3124-7.0109 6.4074-18.493-1.7126-28.217-3.3517-4.2144-12.101-6.9227-21.444-6.8254zm-58.656 3.0133c-0.41816-0.0085-0.81572 0.07054-1.1729 0.25546 2.2335 3.2664 0.8941 7.5198 0.8941 7.5198s2.2858-3.4673 5.7298-3.132c-0.33636-2.0179-3.1929-4.5976-5.4509-4.6432zm6.6886 6.5771c-1.8699 0.0083-3.323 0.27152-4.8249 2.184-5.2485 9.4644 6.4008 21.955 6.4008 21.955s12.02 14.488 18.63 3.4037c1.8647-2.9078 2.3466-5.6923 2.103-8.1998-0.99577 1.0924-2.4226 2.3378-3.3389 1.7432 1.8058-3.1987 0.5361-2.7758 0.5361-2.7758s-4.11 4.0118-8.5038 3.4019c1.5495-2.7961 4.2078-5.9079 4.2078-5.9079s-4.6154 3.9312-10.744-3.6699c4.7134 1.1545 9.4897-0.62785 9.4897-0.62785s-5.2458 1.1051-6.0878-2.6859c2.6555 0.2649 5.1413 0.18316 7.034 0.02159-1.5761-0.50032-3.3501-1.1742-4.9418-2.058-2.8798-1.5476-5.1219-3.5515-6.9117-5.1325-1.0292-0.78914-1.9273-1.6564-3.0493-1.6515z"/><path d="m128.13 61.052a67.813 67.813 0 0 1-67.813 67.813 67.813 67.813 0 0 1-67.813-67.813 67.813 67.813 0 0 1 67.813-67.813 67.813 67.813 0 0 1 67.813 67.813zm-7.4364-0.17706a60.553 60.553 0 0 1-60.553 60.553 60.553 60.553 0 0 1-60.553-60.553 60.553 60.553 0 0 1 60.553-60.553 60.553 60.553 0 0 1 60.553 60.553z" fill="none" stroke="#000" stroke-width="4.8684"/></g></svg>
